<?xml version="1.0" encoding="utf-8"?>
<svg version="1.1" id="Layer_1" xmlns="http://www.w3.org/2000/svg" xmlns:xlink="http://www.w3.org/1999/xlink" x="0px" y="0px"
	 viewBox="0 0 128 128" enable-background="new 0 0 128 128" xml:space="preserve">
<g>
	<path fill="none" stroke="#AAAAAA" stroke-width="3" stroke-linejoin="round" d="M111.8,36.5H16.1c-4.3,0-7.6,3.2-7.6,6.8v47.1
		c0,3.9,3.5,6.8,7.6,6.8H112c4.3,0,7.6-3.2,7.6-6.8V43.3C119.4,39.6,116.1,36.5,111.8,36.5z"/>
	<g>
		<path fill="#AAAAAA" d="M85.1,89.8H42.9c-1,0-1.9-0.9-1.9-1.9v-3.7c0-1,0.9-1.9,1.9-1.9h42.3c1,0,1.9,0.9,1.9,1.9v3.7
			C86.9,88.9,86.1,89.8,85.1,89.8z"/>
		<g>
			<path fill="#AAAAAA" d="M20.6,84.2c0-1,0.9-1.9,1.9-1.9h9.7c1,0,1.9,0.9,1.9,1.9V88c0,1-0.9,1.9-1.9,1.9h-9.7
				c-1,0-1.9-0.9-1.9-1.9V84.2z"/>
		</g>
		<g>
			<path fill="#AAAAAA" d="M93.9,84.2c0-1,0.9-1.9,1.9-1.9h9.7c1,0,1.9,0.9,1.9,1.9V88c0,1-0.9,1.9-1.9,1.9h-9.7
				c-1,0-1.9-0.9-1.9-1.9V84.2z"/>
		</g>
		<g>
			<g>
				<path fill="#AAAAAA" d="M73.4,70.4c0-1.1,0.8-1.9,1.9-1.9H79c1,0,1.9,0.8,1.9,1.9v3.7c0,1-0.8,1.9-1.9,1.9h-3.7
					c-1,0-1.9-0.9-1.9-1.9V70.4z"/>
				<path fill="#AAAAAA" d="M60.2,70.4c0-1.1,0.9-1.9,1.9-1.9h3.7c1.1,0,1.9,0.8,1.9,1.9v3.7c0,1-0.8,1.9-1.9,1.9h-3.7
					c-1,0-1.9-0.9-1.9-1.9V70.4z"/>
				<path fill="#AAAAAA" d="M47,70.4c0-1.1,0.9-1.9,1.9-1.9h3.7c1.1,0,1.9,0.8,1.9,1.9v3.7c0,1-0.8,1.9-1.9,1.9h-3.7
					c-1,0-1.9-0.9-1.9-1.9V70.4z"/>
				<path fill="#AAAAAA" d="M33.8,70.4c0-1.1,0.8-1.9,1.9-1.9h3.7c1.1,0,1.9,0.8,1.9,1.9v3.7c0,1-0.9,1.9-1.9,1.9h-3.7
					c-1.1,0-1.9-0.9-1.9-1.9V70.4z"/>
				<path fill="#AAAAAA" d="M99.9,70.4c0-1.1,0.9-1.9,1.9-1.9h3.7c1.1,0,1.9,0.8,1.9,1.9v3.7c0,1-0.9,1.9-1.9,1.9h-3.7
					c-1,0-1.9-0.9-1.9-1.9V70.4z"/>
				<path fill="#AAAAAA" d="M86.6,70.4c0-1.1,0.9-1.9,1.9-1.9h3.7c1.1,0,1.9,0.8,1.9,1.9v3.7c0,1-0.8,1.9-1.9,1.9h-3.7
					c-1,0-1.9-0.9-1.9-1.9C86.6,74.2,86.6,70.4,86.6,70.4z"/>
				<path fill="#AAAAAA" d="M20.6,70.4c0-1.1,0.8-1.9,1.9-1.9h3.7c1.1,0,1.9,0.8,1.9,1.9v3.7c0,1-0.9,1.9-1.9,1.9h-3.7
					c-1.1,0-1.9-0.9-1.9-1.9V70.4z"/>
			</g>
			<g>
				<path fill="#AAAAAA" d="M80.1,58.2c0-1.1,0.8-1.9,1.9-1.9h3.7c1,0,1.9,0.8,1.9,1.9v3.7c0,1.1-0.8,1.9-1.9,1.9H82
					c-1,0-1.9-0.9-1.9-1.9V58.2z"/>
				<path fill="#AAAAAA" d="M66.9,58.2c0-1.1,0.9-1.9,1.9-1.9h3.7c1.1,0,1.9,0.8,1.9,1.9v3.7c0,1.1-0.8,1.9-1.9,1.9h-3.7
					c-1,0-1.9-0.9-1.9-1.9V58.2z"/>
				<path fill="#AAAAAA" d="M53.5,58.2c0-1.1,0.9-1.9,1.9-1.9h3.7c1.1,0,1.9,0.8,1.9,1.9v3.7c0,1.1-0.8,1.9-1.9,1.9h-3.7
					c-1,0-1.9-0.9-1.9-1.9V58.2z"/>
				<path fill="#AAAAAA" d="M40.4,58.2c0-1.1,0.8-1.9,1.9-1.9H46c1.1,0,1.9,0.8,1.9,1.9v3.7c0,1.1-0.9,1.9-1.9,1.9h-3.7
					c-1.1,0-1.9-0.9-1.9-1.9C40.4,61.9,40.4,58.2,40.4,58.2z"/>
				<path fill="#AAAAAA" d="M93.2,58.2c0-1.1,0.9-1.9,1.9-1.9h3.7c1.1,0,1.9,0.8,1.9,1.9v3.7c0,1.1-0.8,1.9-1.9,1.9h-3.7
					c-1,0-1.9-0.9-1.9-1.9V58.2z"/>
				<path fill="#AAAAAA" d="M27.2,58.2c0-1.1,0.8-1.9,1.9-1.9h3.7c1.1,0,1.9,0.8,1.9,1.9v3.7c0,1.1-0.9,1.9-1.9,1.9H29
					c-1.1,0-1.9-0.9-1.9-1.9C27.2,61.9,27.2,58.2,27.2,58.2z"/>
			</g>
			<g>
				<path fill="#AAAAAA" d="M67.6,49.6c0,1.1-0.8,1.9-1.9,1.9H62c-1,0-1.9-0.8-1.9-1.9v-3.7c0-1,0.8-1.9,1.9-1.9h3.7
					c1,0,1.9,0.9,1.9,1.9V49.6z"/>
				<path fill="#AAAAAA" d="M80.9,49.6c0,1.1-0.9,1.9-1.9,1.9h-3.7c-1.1,0-1.9-0.8-1.9-1.9v-3.7c0-1,0.8-1.9,1.9-1.9H79
					c1,0,1.9,0.9,1.9,1.9V49.6z"/>
				<path fill="#AAAAAA" d="M94.1,49.6c0,1.1-0.9,1.9-1.9,1.9h-3.7c-1.1,0-1.9-0.8-1.9-1.9v-3.7c0-1,0.8-1.9,1.9-1.9h3.7
					c1,0,1.9,0.9,1.9,1.9V49.6z"/>
				<path fill="#AAAAAA" d="M107.4,49.6c0,1.1-0.8,1.9-1.9,1.9h-3.7c-1.1,0-1.9-0.8-1.9-1.9v-3.7c0-1,0.9-1.9,1.9-1.9h3.7
					c1.1,0,1.9,0.9,1.9,1.9V49.6z"/>
				<path fill="#AAAAAA" d="M41.2,49.6c0,1.1-0.9,1.9-1.9,1.9h-3.7c-1.1,0-1.9-0.8-1.9-1.9v-3.7c0-1,0.9-1.9,1.9-1.9h3.7
					c1,0,1.9,0.9,1.9,1.9V49.6z"/>
				<path fill="#AAAAAA" d="M54.5,49.6c0,1.1-0.9,1.9-1.9,1.9h-3.7c-1.1,0-1.9-0.8-1.9-1.9v-3.7c0-1,0.8-1.9,1.9-1.9h3.7
					c1,0,1.9,0.9,1.9,1.9C54.5,45.9,54.5,49.6,54.5,49.6z"/>
				<path fill="#AAAAAA" d="M28.1,49.6c0,1.1-0.9,1.9-1.9,1.9h-3.7c-1.1,0-1.9-0.8-1.9-1.9v-3.7c0-1,0.9-1.9,1.9-1.9h3.7
					c1,0,1.9,0.9,1.9,1.9V49.6z"/>
			</g>
		</g>
	</g>
</g>
</svg>
