<?xml version="1.0" encoding="utf-8"?>
<svg version="1.1" id="Layer_1" xmlns="http://www.w3.org/2000/svg" xmlns:xlink="http://www.w3.org/1999/xlink" x="0px" y="0px"
	 viewBox="0 0 128 128" enable-background="new 0 0 128 128" xml:space="preserve">
<g>
	<g>
		<g>
			<path fill="none" stroke="#AAAAAA" stroke-width="3" stroke-linejoin="round" d="M90.6,82.4c2.4,5.2,11.8,13.9,20.3,13.9
				c6.1,0,9.2-4,9.2-8.4c0-19.6-1.7-31.1-3.6-37.8c-1.5-4.8-4.2-8.8-4.2-8.8c-4-5.2-10.1-8.4-17.2-8.4H84l-2.3,2.9H64H46.2L44,32.9
				H32.9c-7.1,0-13.2,3.2-17.2,8.4c0,0-2.7,4-4.2,8.8c-1.9,6.7-3.6,18.1-3.6,37.8c0,4.4,3.1,8.4,9.2,8.4c8.5,0,17.9-8.7,20.3-13.9"
				/>
			<path fill="none" stroke="#AAAAAA" stroke-width="3" stroke-linejoin="round" d="M56.4,77h15.2"/>
		</g>
		<path fill="#AAAAAA" d="M46.6,74.9c-2.7,0-5,2.3-5,5s2.3,5,5,5s5-2.3,5-5S49.3,74.9,46.6,74.9z"/>
		<path fill="#AAAAAA" d="M81.4,74.9c-2.7,0-5,2.3-5,5s2.3,5,5,5s5-2.3,5-5S84.1,74.9,81.4,74.9z"/>
		<path fill="none" stroke="#AAAAAA" stroke-width="3" stroke-linejoin="round" d="M46.6,70.4c-5.2,0-9.5,4.3-9.5,9.5
			s4.3,9.5,9.5,9.5s9.5-4.3,9.5-9.5S51.8,70.4,46.6,70.4z"/>
		<path fill="none" stroke="#AAAAAA" stroke-width="3" stroke-linejoin="round" d="M81.4,70.4c-5.2,0-9.5,4.3-9.5,9.5
			s4.3,9.5,9.5,9.5s9.5-4.3,9.5-9.5S86.6,70.4,81.4,70.4z"/>
	</g>
	<g>
		<polygon fill="#AAAAAA" points="38.3,56.9 31.6,56.9 31.6,63.8 26.4,63.8 26.4,56.9 19.3,56.9 19.3,51.7 26.2,51.7 26.2,44.8 
			31.4,44.8 31.4,51.7 38.3,51.7 		"/>
		<g>
			<circle fill="#AAAAAA" cx="88.6" cy="54.3" r="4"/>
			<path fill="#AAAAAA" d="M97.3,67.1c-2.2,0-4-1.8-4-4s1.8-4,4-4s4,1.8,4,4C101.3,65.3,99.5,67.1,97.3,67.1z"/>
			<path fill="#AAAAAA" d="M97.3,49.8c-2.2,0-4-1.8-4-4s1.8-4,4-4s4,1.8,4,4S99.5,49.8,97.3,49.8z"/>
			<path fill="#AAAAAA" d="M105.9,58.3c-2.2,0-4-1.8-4-4s1.8-4,4-4s4,1.8,4,4C110.1,56.5,108.1,58.3,105.9,58.3z"/>
		</g>
		<g>
			<g>
				<path fill="#AAAAAA" d="M59.6,63.7h-6.1c-0.7,0-1.5-0.7-1.5-1.9s0.7-2.1,1.5-2.1h6.1c0.7,0,1.5,1,1.5,2.1
					C61.1,63,60.6,63.7,59.6,63.7z"/>
				<path fill="#AAAAAA" d="M74.5,63.7h-6.1c-0.7,0-1.5-0.7-1.5-1.9s0.7-2.1,1.5-2.1h6.1c0.7,0,1.5,0.7,1.5,2.1
					C76,63.3,75.4,63.7,74.5,63.7z"/>
			</g>
			<circle fill="#AAAAAA" cx="64" cy="47.8" r="5"/>
		</g>
	</g>
</g>
</svg>
