<?xml version="1.0" encoding="utf-8"?>
<svg version="1.1" id="Layer_1" xmlns="http://www.w3.org/2000/svg" xmlns:xlink="http://www.w3.org/1999/xlink" x="0px" y="0px"
	 viewBox="0 0 128 128" enable-background="new 0 0 128 128" xml:space="preserve">
<path fill="#777777" d="M51.2,17.1c-5.3,0-12.4,25.5-16.7,28.7c-4.3,3.1-30.8,2-32.4,7c-1.6,5,20.5,19.7,22.1,24.7s-7.6,29.9-3.3,33
	s25-13.4,30.4-13.4v-80H51.2z"/>
<path fill="none" stroke="#777777" stroke-width="4" stroke-linejoin="round" d="M51.2,17.1c-5.3,0-12.4,25.5-16.7,28.7
	c-4.3,3.1-30.8,2-32.4,7c-1.6,5,20.5,19.7,22.1,24.7s-7.6,29.9-3.3,33s25-13.4,30.4-13.4s26.1,16.5,30.4,13.4c4.3-3.1-5-28-3.3-33
	s23.7-19.7,22.1-24.7s-28.1-3.9-32.4-7C63.6,42.6,56.5,17.1,51.2,17.1z"/>
</svg>
