<?xml version="1.0" encoding="utf-8"?>
<svg version="1.1" id="Layer_1" xmlns="http://www.w3.org/2000/svg" xmlns:xlink="http://www.w3.org/1999/xlink" x="0px" y="0px"
	 viewBox="0 0 64 64" enable-background="new 0 0 64 64" xml:space="preserve">
<g>
	<path fill="#FFFFFF" d="M25.2,26.6h-0.3v4.3h0.3c0.5,0,0.9-0.2,1.2-0.6c0.2-0.4,0.4-0.9,0.4-1.7c0-0.8-0.1-1.3-0.4-1.6
		C26.1,26.8,25.7,26.6,25.2,26.6z"/>
	<path fill="#FFFFFF" d="M2.1,19v13c0,7.2,5.8,13,13,13h34c7.2,0,13-5.8,13-13V19H2.1z M27.8,40.6l-2.6-6.5H25v6.5h-4.1V23.4h4.5
		c1.9,0,3.3,0.4,4.2,1.3s1.3,2.2,1.3,3.9c0,2-0.7,3.5-2.1,4.4l3.3,7.5h-4.3V40.6z M43.2,40.6h-9.8V38l3-4.3c0.4-0.6,0.7-1,0.9-1.4
		c0.2-0.3,0.5-0.8,0.7-1.3c0.5-1,0.8-1.9,0.8-2.9c0-0.5-0.1-0.9-0.3-1.2c-0.2-0.3-0.4-0.4-0.8-0.4c-0.4,0-0.7,0.2-1.1,0.5
		c-0.3,0.3-0.6,0.6-0.9,0.8c-0.2,0.3-0.4,0.4-0.4,0.5l-2-2.3c0.8-0.9,1.6-1.5,2.3-1.9c0.8-0.4,1.6-0.6,2.6-0.6
		c1.5,0,2.7,0.4,3.5,1.2c0.8,0.8,1.2,2,1.2,3.4c0,0.9-0.2,1.9-0.5,2.7c-0.3,0.9-0.8,1.7-1.4,2.6c-0.6,0.8-1.6,2.2-3,4h5.2V40.6z"/>
</g>
</svg>
