<?xml version="1.0" encoding="utf-8"?>
<!-- Generator: Adobe Illustrator 25.1.0, SVG Export Plug-In . SVG Version: 6.00 Build 0)  -->
<svg version="1.1" id="Layer_1" xmlns="http://www.w3.org/2000/svg" xmlns:xlink="http://www.w3.org/1999/xlink" x="0px" y="0px"
	 viewBox="0 0 64 64" style="enable-background:new 0 0 64 64;" xml:space="preserve">
<style type="text/css">
	.st0{fill:none;stroke:#FFFFFF;stroke-width:2;}
	.st1{fill:#FFFFFF;}
</style>
<circle id="outline_east" class="st0" cx="50" cy="32" r="10"/>
<circle id="outline_south" class="st0" cx="32" cy="50" r="10"/>
<circle id="outline_north" class="st0" cx="32" cy="14" r="10"/>
<circle id="outline_west" class="st0" cx="14" cy="32" r="10"/>
<path id="button_triangle" class="st1" d="M32,3c-6,0-11,4.9-11,11s5,11,11,11s11-5,11-11S38,3,32,3z M32,5.8c0.3,0,0.5,0.1,0.7,0.4
	l6.3,11.5c0.2,0.3,0.1,0.9-0.3,1.1C38.5,19,38.4,19,38.3,19H25.7c-0.4,0-0.8-0.3-0.8-0.8c0-0.1,0-0.2,0.1-0.3l6.3-11.6
	C31.5,5.9,31.7,5.8,32,5.8L32,5.8z M32,8.2l-5,9.1H37L32,8.2L32,8.2z"/>
</svg>
