<?xml version="1.0" encoding="utf-8"?>
<svg version="1.1" id="Layer_1" xmlns="http://www.w3.org/2000/svg" xmlns:xlink="http://www.w3.org/1999/xlink" x="0px" y="0px"
	 viewBox="0 0 64 64" enable-background="new 0 0 64 64" xml:space="preserve">
<path id="outline_1_" fill="none" stroke="#FFFFFF" stroke-width="2" stroke-linejoin="round" d="M62,19v13c0,7.2-5.8,13-13,13H15
	C7.8,45,2,39.2,2,32V19"/>
<line id="outline2_1_" fill="none" stroke="#FFFFFF" stroke-width="2" x1="1" y1="19" x2="63" y2="19"/>
<path id="outline" fill="none" stroke="#FFFFFF" stroke-width="2" stroke-linejoin="round" d="M62,19v13c0,7.2-5.8,13-13,13H15
	C7.8,45,2,39.2,2,32V19"/>
<line id="outline2" fill="none" stroke="#FFFFFF" stroke-width="2" x1="1" y1="19" x2="63" y2="19"/>
<path fill="#FFFFFF" d="M2.1,19v13c0,7.2,5.8,13,13,13h34c7.2,0,13-5.8,13-13V19H2.1z M30.3,40.6h-8.4V23.4H26v13.9h4.3V40.6z
	 M43.2,40.6h-9.8V38l3-4.3c0.4-0.6,0.7-1,0.9-1.4c0.2-0.3,0.5-0.8,0.7-1.3c0.5-1,0.8-1.9,0.8-2.9c0-0.5-0.1-0.9-0.3-1.2
	c-0.2-0.3-0.4-0.4-0.8-0.4c-0.4,0-0.7,0.2-1.1,0.5c-0.3,0.3-0.6,0.6-0.9,0.8c-0.2,0.3-0.4,0.4-0.4,0.5l-2-2.3
	c0.8-0.9,1.6-1.5,2.3-1.9c0.8-0.4,1.6-0.6,2.6-0.6c1.5,0,2.7,0.4,3.5,1.2s1.2,2,1.2,3.4c0,0.9-0.2,1.9-0.5,2.7
	c-0.3,0.9-0.8,1.7-1.4,2.6c-0.6,0.8-1.6,2.2-3,4h5.2V40.6z"/>
</svg>
