<?xml version="1.0" encoding="utf-8"?>
<!-- Generator: Adobe Illustrator 25.1.0, SVG Export Plug-In . SVG Version: 6.00 Build 0)  -->
<svg version="1.1" id="Layer_1" xmlns="http://www.w3.org/2000/svg" xmlns:xlink="http://www.w3.org/1999/xlink" x="0px" y="0px"
	 viewBox="0 0 64 64" style="enable-background:new 0 0 64 64;" xml:space="preserve">
<style type="text/css">
	.st0{fill:none;stroke:#FFFFFF;stroke-width:2;}
	.st1{fill:#FFFFFF;}
</style>
<circle id="outline_east" class="st0" cx="50" cy="32" r="10"/>
<circle id="outline_south" class="st0" cx="32" cy="50" r="10"/>
<circle id="outline_north" class="st0" cx="32" cy="14" r="10"/>
<circle id="outline_west" class="st0" cx="14" cy="32" r="10"/>
<path id="button_south" class="st1" d="M50,22c-5.5,0-10,4.5-10,10s4.5,10,10,10s10-4.5,10-10S55.5,22,50,22z M46.5,26.3h3.2
	c1.3,0,2.2,0.2,2.8,0.7s0.9,1.2,0.9,2.3c0,0.7-0.2,1.2-0.5,1.7c-0.2,0.3-0.5,0.6-0.9,0.7c0.6,0.2,1,0.5,1.2,1c0.3,0.4,0.4,1,0.4,1.7
	c0,1.1-0.3,1.9-0.9,2.5c-0.6,0.6-1.4,0.9-2.4,0.9h-3.7V26.3z M49.1,28.4v2.3h0.6c0.3,0,0.5-0.1,0.7-0.3c0.1-0.2,0.2-0.5,0.2-0.9
	c0-0.4-0.1-0.7-0.2-0.9c-0.1-0.2-0.4-0.3-0.7-0.3C49.6,28.4,49.1,28.4,49.1,28.4z M49.1,32.8v2.8h0.7c0.6,0,0.9-0.5,0.9-1.4
	c0-0.9-0.3-1.3-1-1.3H49.1z"/>
</svg>
