<?xml version="1.0" encoding="utf-8"?>
<svg version="1.1" id="Layer_1" xmlns="http://www.w3.org/2000/svg" xmlns:xlink="http://www.w3.org/1999/xlink" x="0px" y="0px"
	 viewBox="0 0 64 64" enable-background="new 0 0 64 64" xml:space="preserve">
<path id="outline" fill="none" stroke="#FFFFFF" stroke-width="2" stroke-linejoin="round" d="M62,19v13c0,7.2-5.8,13-13,13H15
	C7.8,45,2,39.2,2,32V19"/>
<line id="outline2" fill="none" stroke="#FFFFFF" stroke-width="2" x1="1" y1="19" x2="63" y2="19"/>
<path id="button_rt" fill="#FFFFFF" d="M2,19v13c0,7.2,5.8,13,13,13h34c7.2,0,13-5.8,13-13V19H2z M30.4,40.6H19.9V38l6.2-11.3H20
	v-3.2h10.2v2.7L24,37.4h6.4V40.6z M32.9,23.4h4.5c1.9,0,3.3,0.4,4.2,1.3s1.3,2.2,1.3,3.9c0,2-0.7,3.5-2.1,4.4l3.3,7.5h-4.3L37.2,34
	H37v6.5h-4.1V23.4z M37,26.6v4.3h0.3c0.5,0,0.9-0.2,1.2-0.6c0.2-0.4,0.4-0.9,0.4-1.7c0-0.8-0.1-1.3-0.4-1.6
	c-0.2-0.3-0.6-0.5-1.2-0.5H37V26.6z"/>
</svg>
