<?xml version="1.0" encoding="utf-8"?>
<!-- Generator: Adobe Illustrator 25.1.0, SVG Export Plug-In . SVG Version: 6.00 Build 0)  -->
<svg version="1.1" id="Layer_1" xmlns="http://www.w3.org/2000/svg" xmlns:xlink="http://www.w3.org/1999/xlink" x="0px" y="0px"
	 viewBox="0 0 64 64" style="enable-background:new 0 0 64 64;" xml:space="preserve">
<style type="text/css">
	.st0{fill:none;stroke:#FFFFFF;stroke-width:2;}
	.st1{fill:#FFFFFF;}
</style>
<circle id="outline_east" class="st0" cx="50" cy="32" r="10"/>
<circle id="outline_south" class="st0" cx="32" cy="50" r="10"/>
<circle id="outline_north" class="st0" cx="32" cy="14" r="10"/>
<circle id="outline_west" class="st0" cx="14" cy="32" r="10"/>
<path id="button_square" class="st1" d="M14,21C7.9,21,3,26,3,32s4.9,11,11,11s11-5,11-11S20,21,14,21z M8.5,25.7h11
	c0.4,0,0.8,0.3,0.8,0.8v11c0,0.4-0.3,0.8-0.8,0.8h-11c-0.4,0-0.8-0.3-0.8-0.8v-11C7.7,26.1,8.1,25.7,8.5,25.7z M9.3,27.3v9.5h9.5
	v-9.5C18.7,27.3,9.3,27.3,9.3,27.3z"/>
</svg>
