<?xml version="1.0" encoding="utf-8"?>
<svg version="1.1" id="Layer_1" xmlns="http://www.w3.org/2000/svg" xmlns:xlink="http://www.w3.org/1999/xlink" x="0px" y="0px"
	 viewBox="0 0 64 64" enable-background="new 0 0 64 64" xml:space="preserve">
<g>
	<path fill="#FFFFFF" d="M14.9,17.4c0.7,0,1.4,0.2,2.2,0.7l0.2,0.1l1-2.6L18,15.5c-1.1-0.6-2.2-0.9-3.3-0.9c-1.9,0-3.4,0.7-4.5,2
		s-1.6,3-1.6,5.3c0,2.4,0.5,4.1,1.4,5.3c1,1.3,2.3,1.9,4,1.9c1.4,0,2.8-0.3,4-0.8l0.2-0.1v-7.4h-4.9v2.8h1.8v2.7
		c-0.4,0.1-0.7,0.1-1.1,0.1c-0.7,0-1.3-0.4-1.7-1.1c-0.4-0.8-0.6-2-0.6-3.4c0-1.5,0.3-2.6,0.9-3.3C13.2,17.8,13.9,17.4,14.9,17.4z"
		/>
	<path fill="#FFFFFF" d="M26.1,24.2c0,0.8-0.1,1.4-0.4,1.8s-0.6,0.6-1.1,0.6c-0.4,0-1.6,0-1.6-2.4V15h-3.1v9c0,1.7,0.4,3,1.2,3.9
		c0.8,0.9,2,1.4,3.4,1.4c1.5,0,2.8-0.5,3.5-1.4c0.8-0.9,1.2-2.2,1.2-3.8V15h-3.1V24.2z"/>
	<rect x="31.7" y="14.9" fill="#FFFFFF" width="3" height="14.2"/>
	<path fill="#FFFFFF" d="M41.3,14.9h-4V29H41c1.9,0,3.3-0.6,4.3-1.9c1-1.2,1.5-3,1.5-5.3c0-2.2-0.5-3.8-1.5-5.1
		C44.4,15.5,43,14.9,41.3,14.9z M42.9,25.3c-0.4,0.7-1.1,1.1-2,1.1h-0.6v-8.8h0.8c1.6,0,2.4,1.4,2.4,4.3
		C43.6,23.4,43.4,24.5,42.9,25.3z"/>
	<polygon fill="#FFFFFF" points="55.4,17.6 55.4,14.9 48.4,14.9 48.4,29 55.4,29 55.4,26.3 51.6,26.3 51.6,23 55.1,23 55.1,20.4 
		51.6,20.4 51.6,17.6 	"/>
</g>
<g id="outline_south">
	<path fill="#FFFFFF" d="M32,54c-6.1,0-11-4.9-11-11s4.9-11,11-11s11,4.9,11,11S38.1,54,32,54z"/>
</g>
</svg>
