<?xml version="1.0" encoding="utf-8"?>
<!-- Generator: Adobe Illustrator 25.1.0, SVG Export Plug-In . SVG Version: 6.00 Build 0)  -->
<svg version="1.1" id="Layer_1" xmlns="http://www.w3.org/2000/svg" xmlns:xlink="http://www.w3.org/1999/xlink" x="0px" y="0px"
	 viewBox="0 0 64 64" style="enable-background:new 0 0 64 64;" xml:space="preserve">
<style type="text/css">
	.st0{fill:#FFFFFF;}
	.st1{fill:none;stroke:#FFFFFF;stroke-width:2;}
</style>
<path id="circle_1_" class="st0" d="M50,21c-6,0-11,5-11,11s5,11,11,11s11-5,11-11S56,21,50,21z M50,24.5c4.1,0,7.5,3.3,7.5,7.5
	s-3.3,7.5-7.5,7.5s-7.5-3.3-7.5-7.5S45.9,24.5,50,24.5z M50,26.1c-3.3,0-5.9,2.6-5.9,5.9s2.6,5.9,5.9,5.9s5.9-2.6,5.9-5.9
	S53.3,26.1,50,26.1z"/>
<circle id="outline_north" class="st1" cx="32" cy="14" r="10"/>
<circle id="outline_west" class="st1" cx="14" cy="32" r="10"/>
<circle id="outline_north_1_" class="st1" cx="32" cy="50" r="10"/>
</svg>
