<?xml version="1.0" encoding="utf-8"?>
<svg version="1.1" id="Layer_1" xmlns="http://www.w3.org/2000/svg" xmlns:xlink="http://www.w3.org/1999/xlink" x="0px" y="0px"
	 viewBox="0 0 64 64" enable-background="new 0 0 64 64" xml:space="preserve">
<g id="outline_south">
	<path fill="#FFFFFF" d="M32,54c-6.1,0-11-4.9-11-11s4.9-11,11-11s11,4.9,11,11S38.1,54,32,54z"/>
</g>
<g>
	<path fill="#FFFFFF" d="M18.07,29.1h-2.84v-6.26h-3.75v6.26H8.65V14.82h2.84v5.67h3.75v-5.67h2.84V29.1H18.07z"/>
	<path fill="#FFFFFF" d="M30.77,21.95c0,2.36-0.47,4.18-1.42,5.45s-2.3,1.9-4.06,1.9c-1.77,0-3.12-0.63-4.07-1.9
		s-1.42-3.09-1.42-5.47c0-2.36,0.47-4.18,1.42-5.44s2.31-1.89,4.09-1.89c1.76,0,3.11,0.63,4.05,1.9
		C30.3,17.77,30.77,19.58,30.77,21.95z M22.7,21.95c0,1.63,0.22,2.87,0.66,3.72s1.08,1.28,1.93,1.28c1.71,0,2.57-1.67,2.57-5
		s-0.85-5-2.55-5c-0.86,0-1.51,0.42-1.95,1.27C22.92,19.07,22.7,20.31,22.7,21.95z"/>
	<path fill="#FFFFFF" d="M37.95,29.1l-2.9-12.16h-0.11c0.13,0.94,0.2,1.8,0.2,2.58v9.58H32.5V14.82h4.36l2.61,11.22h0.08l2.59-11.22
		h4.43V29.1h-2.69v-9.68c0-0.8,0.05-1.62,0.15-2.46h-0.08l-2.9,12.14H37.95z"/>
	<path fill="#FFFFFF" d="M55.35,29.1h-6.88V14.82h6.88v2.3h-4.04v3.4h3.75v2.31h-3.75v3.96h4.04V29.1z"/>
</g>
</svg>
