<?xml version="1.0" encoding="utf-8"?>
<!-- Generator: Adobe Illustrator 25.1.0, SVG Export Plug-In . SVG Version: 6.00 Build 0)  -->
<svg version="1.1" id="Layer_1" xmlns="http://www.w3.org/2000/svg" xmlns:xlink="http://www.w3.org/1999/xlink" x="0px" y="0px"
	 viewBox="0 0 64 64" style="enable-background:new 0 0 64 64;" xml:space="preserve">
<style type="text/css">
	.st0{fill:none;stroke:#FFFFFF;stroke-width:2;}
	.st1{fill:#FFFFFF;}
</style>
<circle id="outline_east" class="st0" cx="50" cy="32" r="10"/>
<circle id="outline_north" class="st0" cx="32" cy="14" r="10"/>
<circle id="outline_west" class="st0" cx="14" cy="32" r="10"/>
<path id="button_xing" class="st1" d="M32,39c-6,0-11,5-11,11s5,11,11,11s11-5,11-11S38,39,32,39z M26.5,43.7c0.2,0,0.4,0.1,0.5,0.2
	l5,5l5-5c0.1-0.1,0.3-0.2,0.5-0.2c0.4,0,0.8,0.3,0.8,0.8c0,0.2-0.1,0.4-0.2,0.5l-5,5l5,5c0.3,0.3,0.3,0.8,0,1.1s-0.8,0.3-1.1,0l0,0
	l-5-5l-5,5c-0.3,0.3-0.8,0.3-1.1,0c-0.3-0.3-0.3-0.8,0-1.1l0,0l4.9-5L26,45c-0.3-0.3-0.3-0.8,0-1.1C26.1,43.8,26.3,43.7,26.5,43.7z"
	/>
</svg>
